# xmcd
#
# Track frame offsets:
#	150
#	14677
#	30276
#	41835
#	57668
#	74977
#	115180
#	127133
#	139368
#	159767
#	182736
#	194323
#	209031
#	221367
#	239962
#
# Disc length: 3330 seconds
#
# Revision: 0
# Processed by: cddbd v1.4PL0 Copyright (c) Steve Scherf et al.
# Submitted via: dBpowerAMP V4.0
#
DISCID=f60d000f
DTITLE=Little Toby Walker - Cool Hand
DYEAR=2002
DGENRE=Blues
TTITLE0=It's Tough
TTITLE1=Sleeping Alone
TTITLE2=Swing Bean
TTITLE3=By Your Side
TTITLE4=Give Me That On-Line Religion
TTITLE5=Ride With You Tonight
TTITLE6=Mojo Mama
TTITLE7=Baseball Blues
TTITLE8=Pretty Polly
TTITLE9=Going Down The Road Feeling Bad
TTITLE10=I Like To Boogie
TTITLE11=Blind Man's Bluff
TTITLE12=I Can't Remember
TTITLE13=Ride This Train
TTITLE14=Baker's Dozen
EXTD=
EXTT0=
EXTT1=
EXTT2=
EXTT3=
EXTT4=
EXTT5=
EXTT6=
EXTT7=
EXTT8=
EXTT9=
EXTT10=
EXTT11=
EXTT12=
EXTT13=
EXTT14=
PLAYORDER=
